<svg viewBox="0 0 570 930" xmlns="http://www.w3.org/2000/svg">
  <style>
    rect {
      stroke: black;
      fill: white;
    }
    .con { fill: lightblue }
    .ast { fill: yellowgreen }
    .int { fill: orchid }
    .pos { fill: gray }
    text {
      stroke: none;
      fill: black;
      font-size: 16px;
      text-anchor: middle;
      dominant-baseline: middle;
    }
    .ofs { text-anchor: end }
    .ifo { text-anchor: start }
  </style>

  <text x="50" y="10" class="ofs">0</text>

  <rect x="60" y="10" height="20" width="100" class="con" />
  <rect x="160" y="10" height="20" width="400" />
  <text x="110" y="20">"TAG+"</text>
  <text x="170" y="20" class="ifo">Enhanced Header</text>

  <text x="50" y="30" class="ofs">4</text>

  <rect x="60" y="30" height="80" width="100" class="ast" />
  <rect x="160" y="30" height="80" width="400" />
  <text x="110" y="70">title</text>
  <text x="170" y="40" class="ifo">ISO/IEC 8859-1 (latin1) encoded string</text>

  <text x="50" y="110" class="ofs">64</text>

  <rect x="60" y="110" height="80" width="100" class="ast" />
  <rect x="160" y="110" height="80" width="400" />
  <text x="110" y="150">artist</text>
  <text x="170" y="120" class="ifo">latin1 string</text>

  <text x="50" y="190" class="ofs">124</text>

  <rect x="60" y="190" height="80" width="100" class="ast" />
  <rect x="160" y="190" height="80" width="400" />
  <text x="110" y="230">album</text>
  <text x="170" y="200" class="ifo">latin1 string</text>

  <text x="50" y="270" class="ofs">184</text>

  <rect x="60" y="270" height="100" width="100" class="int" />
  <rect x="160" y="270" height="100" width="400" />
  <text x="110" y="320">speed</text>
  <text x="170" y="280" class="ifo">0x00 = unset</text>
  <text x="170" y="300" class="ifo">0x01 = slow</text>
  <text x="170" y="320" class="ifo">0x02 = medium</text>
  <text x="170" y="340" class="ifo">0x03 = fast</text>
  <text x="170" y="360" class="ifo">0x04 = hardcore</text>

  <text x="50" y="370" class="ofs">185</text>

  <rect x="60" y="370" height="80" width="100" class="ast" />
  <rect x="160" y="370" height="80" width="400" />
  <text x="110" y="410">genre</text>
  <text x="170" y="380" class="ifo">latin1 string</text>

  <text x="50" y="450" class="ofs">215</text>

  <rect x="60" y="450" height="20" width="100" class="ast" />
  <rect x="160" y="450" height="20" width="400" />
  <text x="110" y="460">start time</text>
  <text x="170" y="460" class="ifo">latin1 string ("mmm:ss")</text>

  <text x="50" y="470" class="ofs">221</text>

  <rect x="60" y="470" height="20" width="100" class="ast" />
  <rect x="160" y="470" height="20" width="400" />
  <text x="110" y="480">end time</text>
  <text x="170" y="480" class="ifo">latin1 string ("mmm:ss")</text>

  <text x="50" y="490" class="ofs">227</text>

  <rect x="60" y="490" height="20" width="100" class="con" />
  <rect x="160" y="490" height="20" width="400" />
  <text x="110" y="500">"TAG"</text>
  <text x="170" y="500" class="ifo">Header</text>

  <text x="50" y="510" class="ofs">230</text>

  <rect x="60" y="510" height="80" width="100" class="ast" />
  <rect x="160" y="510" height="80" width="400" />
  <text x="110" y="550">title</text>
  <text x="170" y="520" class="ifo">latin1 string</text>

  <text x="50" y="590" class="ofs">260</text>

  <rect x="60" y="590" height="80" width="100" class="ast" />
  <rect x="160" y="590" height="80" width="400" />
  <text x="110" y="630">artist</text>
  <text x="170" y="600" class="ifo">latin1 string</text>

  <text x="50" y="670" class="ofs">290</text>

  <rect x="60" y="670" height="80" width="100" class="ast" />
  <rect x="160" y="670" height="80" width="400" />
  <text x="110" y="710">album</text>
  <text x="170" y="680" class="ifo">latin1 string</text>

  <text x="50" y="750" class="ofs">320</text>

  <rect x="60" y="750" height="20" width="100" class="ast" />
  <rect x="160" y="750" height="20" width="400" />
  <text x="110" y="760">year</text>
  <text x="170" y="760" class="ifo">latin1 string ('0' to '9')</text>

  <text x="50" y="770" class="ofs">324</text>

  <rect x="60" y="770" height="80" width="100" class="ast" />
  <rect x="160" y="770" height="80" width="400" />
  <text x="110" y="810">comment</text>
  <text x="170" y="780" class="ifo">latin1 string</text>

  <text x="50" y="850" class="ofs">352</text>

  <rect x="60" y="850" height="20" width="100" class="con" />
  <rect x="160" y="850" height="20" width="400" />
  <text x="110" y="860">0x00</text>
  <text x="170" y="860" class="ifo">separator</text>

  <text x="50" y="870" class="ofs">353</text>

  <rect x="60" y="870" height="80" width="100" class="int" />
  <rect x="160" y="870" height="80" width="400" />
  <text x="110" y="880">album track</text>
  <text x="170" y="880" class="ifo">integer</text>

  <text x="50" y="890" class="ofs">354</text>

  <rect x="60" y="890" height="20" width="100" class="int" />
  <rect x="160" y="890" height="20" width="400" />
  <text x="110" y="900">genre</text>
  <text x="170" y="900" class="ifo">0x00 - 0x80 (winamp 0x00 - 0xBF)</text>

  <text x="50" y="910" class="ofs">355</text>

  <rect x="60" y="910" height="20" width="500" class="pos" />
  <text x="310" y="920">end of file</text>
</svg>
