<svg viewBox="0 0 570 480" xmlns="http://www.w3.org/2000/svg">
  <style>
    rect {
      stroke: #000;
      fill: #fff;
    }
    .con { fill: #aff }
    .ast { fill: #afa }
    .int { fill: #f7e }
    .pos { fill: #bbb }
    .ref { fill: #fea }
    text {
      stroke: none;
      fill: #000;
      font-size: 16px;
      text-anchor: middle;
      dominant-baseline: middle;
    }
    .siz { text-anchor: end }
    .ifo { text-anchor: start }
  </style>

  <rect x="60" y="10" height="20" width="100" class="con" />
  <rect x="160" y="10" height="20" width="400" />
  <text x="110" y="20">"EXT"</text>
  <text x="170" y="20" class="ifo">Extra Header</text>
  <text x="50" y="20" class="siz">3B</text>

  <rect x="60" y="30" height="80" width="100" class="ast" />
  <rect x="160" y="30" height="80" width="400" />
  <text x="110" y="70">title 2</text>
  <text x="170" y="40" class="ifo">ISO/IEC 8859-1 (latin1) encoded string</text>
  <text x="170" y="60" class="ifo">follows the title of the ID3v1.1 tag</text>
  <text x="50" y="70" class="siz">30B</text>

  <rect x="60" y="110" height="80" width="100" class="ast" />
  <rect x="160" y="110" height="80" width="400" />
  <text x="110" y="150">artist 2</text>
  <text x="170" y="120" class="ifo">latin1 string</text>
  <text x="170" y="140" class="ifo">follows the artist of the ID3v1.1 tag</text>
  <text x="50" y="150" class="siz">30B</text>

  <rect x="60" y="190" height="80" width="100" class="ast" />
  <rect x="160" y="190" height="80" width="400" />
  <text x="110" y="230">album 2</text>
  <text x="170" y="200" class="ifo">latin1 string</text>
  <text x="170" y="220" class="ifo">follows the album of the ID3v1.1 tag</text>
  <text x="50" y="230" class="siz">30B</text>

  <rect x="60" y="270" height="40" width="100" class="ast" />
  <rect x="160" y="270" height="40" width="400" />
  <text x="110" y="290">comment 2</text>
  <text x="170" y="280" class="ifo">latin1 string</text>
  <text x="170" y="300" class="ifo">follows the comment of the ID3v1.1 tag</text>
  <text x="50" y="290" class="siz">15B</text>

  <rect x="60" y="310" height="40" width="100" class="ast" />
  <rect x="160" y="310" height="40" width="400" />
  <text x="110" y="330">sub genre</text>
  <text x="170" y="320" class="ifo">latin1 string</text>
  <text x="50" y="330" class="siz">20B</text>

  <rect x="60" y="350" height="100" width="500" class="ref" />
  <text x="310" y="400">ID3v1.1 Tag</text>
  <text x="50" y="400" class="siz">128B</text>

  <rect x="60" y="450" height="20" width="500" class="pos" />
  <text x="310" y="460">end of file</text>
</svg>
