<svg viewBox="0 0 570 450" xmlns="http://www.w3.org/2000/svg">
  <style>
    rect {
      stroke: black;
      fill: white;
    }
    .con { fill: lightblue }
    .ast { fill: yellowgreen }
    .int { fill: orchid }
    .pos { fill: gray }
    text {
      stroke: none;
      fill: black;
      font-size: 16px;
      text-anchor: middle;
      dominant-baseline: middle;
    }
    .ofs { text-anchor: end }
    .ifo { text-anchor: start }
  </style>

  <text x="50" y="10" class="ofs">0</text>

  <rect x="60" y="10" height="20" width="100" class="con" />
  <rect x="160" y="10" height="20" width="400" />
  <text x="110" y="20">"TAG"</text>
  <text x="170" y="20" class="ifo">Header</text>

  <text x="50" y="30" class="ofs">3</text>

  <rect x="60" y="30" height="80" width="100" class="ast" />
  <rect x="160" y="30" height="80" width="400" />
  <text x="110" y="70">title</text>
  <text x="170" y="40" class="ifo">ISO/IEC 8859-1 (latin1) encoded string</text>

  <text x="50" y="110" class="ofs">33</text>

  <rect x="60" y="110" height="80" width="100" class="ast" />
  <rect x="160" y="110" height="80" width="400" />
  <text x="110" y="150">artist</text>
  <text x="170" y="120" class="ifo">latin1 string</text>

  <text x="50" y="190" class="ofs">63</text>

  <rect x="60" y="190" height="80" width="100" class="ast" />
  <rect x="160" y="190" height="80" width="400" />
  <text x="110" y="230">album</text>
  <text x="170" y="200" class="ifo">latin1 string</text>

  <text x="50" y="270" class="ofs">93</text>

  <rect x="60" y="270" height="20" width="100" class="ast" />
  <rect x="160" y="270" height="20" width="400" />
  <text x="110" y="280">year</text>
  <text x="170" y="280" class="ifo">latin1 string ('0' to '9')</text>

  <text x="50" y="290" class="ofs">97</text>

  <rect x="60" y="290" height="80" width="100" class="ast" />
  <rect x="160" y="290" height="80" width="400" />
  <text x="110" y="330">comment</text>
  <text x="170" y="300" class="ifo">latin1 string</text>

  <text x="50" y="370" class="ofs">125</text>

  <rect x="60" y="370" height="20" width="100" class="con" />
  <rect x="160" y="370" height="20" width="400" />
  <text x="110" y="380">0x00</text>
  <text x="170" y="380" class="ifo">separator</text>

  <text x="50" y="390" class="ofs">126</text>

  <rect x="60" y="390" height="80" width="100" class="int" />
  <rect x="160" y="390" height="80" width="400" />
  <text x="110" y="400">album track</text>
  <text x="170" y="400" class="ifo">integer</text>

  <text x="50" y="410" class="ofs">127</text>

  <rect x="60" y="410" height="20" width="100" class="int" />
  <rect x="160" y="410" height="20" width="400" />
  <text x="110" y="420">genre</text>
  <text x="170" y="420" class="ifo">0x00 - 0x80 (winamp 0x00 - 0xBF)</text>

  <text x="50" y="430" class="ofs">128</text>

  <rect x="60" y="430" height="20" width="500" class="pos" />
  <text x="310" y="440">end of file</text>
</svg>
