<svg viewBox="0 0 570 790" xmlns="http://www.w3.org/2000/svg">
  <style>
    rect {
      stroke: black;
      fill: white;
    }
    .con { fill: lightblue }
    .ast { fill: yellowgreen }
    .int { fill: orchid }
    .pos { fill: gray }
    text {
      stroke: none;
      fill: black;
      font-size: 16px;
      text-anchor: middle;
      dominant-baseline: middle;
    }
    .ofs { text-anchor: end }
    .ifo { text-anchor: start }
  </style>

  <text x="50" y="10" class="ofs">0</text>

  <rect x="60" y="10" height="20" width="100" class="con" />
  <rect x="160" y="10" height="20" width="400" />
  <text x="110" y="20">"EXT"</text>
  <text x="170" y="20" class="ifo">Extra Header</text>

  <text x="50" y="30" class="ofs">3</text>

  <rect x="60" y="30" height="80" width="100" class="ast" />
  <rect x="160" y="30" height="80" width="400" />
  <text x="110" y="70">title 2</text>
  <text x="170" y="40" class="ifo">ISO/IEC 8859-1 (latin1) encoded string</text>
  <text x="170" y="60" class="ifo">second half</text>

  <text x="50" y="110" class="ofs">33</text>

  <rect x="60" y="110" height="80" width="100" class="ast" />
  <rect x="160" y="110" height="80" width="400" />
  <text x="110" y="150">artist 2</text>
  <text x="170" y="120" class="ifo">latin1 string</text>
  <text x="170" y="140" class="ifo">second half</text>

  <text x="50" y="190" class="ofs">63</text>

  <rect x="60" y="190" height="80" width="100" class="ast" />
  <rect x="160" y="190" height="80" width="400" />
  <text x="110" y="230">album 2</text>
  <text x="170" y="200" class="ifo">latin1 string</text>
  <text x="170" y="220" class="ifo">second half</text>

  <text x="50" y="270" class="ofs">93</text>

  <rect x="60" y="270" height="40" width="100" class="ast" />
  <rect x="160" y="270" height="40" width="400" />
  <text x="110" y="290">comment 2</text>
  <text x="170" y="280" class="ifo">latin1 string</text>
  <text x="170" y="300" class="ifo">second half</text>

  <text x="50" y="310" class="ofs">108</text>

  <rect x="60" y="310" height="40" width="100" class="ast" />
  <rect x="160" y="310" height="40" width="400" />
  <text x="110" y="330">sub genre</text>
  <text x="170" y="320" class="ifo">latin1 string</text>

  <text x="50" y="350" class="ofs">128</text>

  <rect x="60" y="350" height="20" width="100" class="con" />
  <rect x="160" y="350" height="20" width="400" />
  <text x="110" y="360">"TAG"</text>
  <text x="170" y="360" class="ifo">Header</text>

  <text x="50" y="370" class="ofs">131</text>

  <rect x="60" y="370" height="80" width="100" class="ast" />
  <rect x="160" y="370" height="80" width="400" />
  <text x="110" y="410">title</text>
  <text x="170" y="380" class="ifo">latin1 string</text>
  <text x="170" y="400" class="ifo">first half</text>

  <text x="50" y="450" class="ofs">161</text>

  <rect x="60" y="450" height="80" width="100" class="ast" />
  <rect x="160" y="450" height="80" width="400" />
  <text x="110" y="490">artist</text>
  <text x="170" y="460" class="ifo">latin1 string</text>
  <text x="170" y="480" class="ifo">first half</text>

  <text x="50" y="530" class="ofs">191</text>

  <rect x="60" y="530" height="80" width="100" class="ast" />
  <rect x="160" y="530" height="80" width="400" />
  <text x="110" y="570">album</text>
  <text x="170" y="540" class="ifo">latin1 string</text>
  <text x="170" y="560" class="ifo">first half</text>

  <text x="50" y="610" class="ofs">221</text>

  <rect x="60" y="610" height="20" width="100" class="ast" />
  <rect x="160" y="610" height="20" width="400" />
  <text x="110" y="620">year</text>
  <text x="170" y="620" class="ifo">latin1 string ('0' to '9')</text>

  <text x="50" y="630" class="ofs">225</text>

  <rect x="60" y="630" height="80" width="100" class="ast" />
  <rect x="160" y="630" height="80" width="400" />
  <text x="110" y="670">comment</text>
  <text x="170" y="640" class="ifo">latin1 string</text>
  <text x="170" y="660" class="ifo">first half</text>

  <text x="50" y="710" class="ofs">253</text>

  <rect x="60" y="710" height="20" width="100" class="con" />
  <rect x="160" y="710" height="20" width="400" />
  <text x="110" y="720">0x00</text>
  <text x="170" y="720" class="ifo">separator</text>

  <text x="50" y="730" class="ofs">254</text>

  <rect x="60" y="730" height="80" width="100" class="int" />
  <rect x="160" y="730" height="80" width="400" />
  <text x="110" y="740">album track</text>
  <text x="170" y="740" class="ifo">integer</text>

  <text x="50" y="750" class="ofs">255</text>

  <rect x="60" y="750" height="20" width="100" class="int" />
  <rect x="160" y="750" height="20" width="400" />
  <text x="110" y="760">genre</text>
  <text x="170" y="760" class="ifo">0x00 - 0x80 (winamp 0x00 - 0xBF)</text>

  <text x="50" y="770" class="ofs">256</text>

  <rect x="60" y="770" height="20" width="500" class="pos" />
  <text x="310" y="780">end of file</text>
</svg>