<svg viewBox="0 0 570 410" xmlns="http://www.w3.org/2000/svg">
  <style>
    rect {
      stroke: #000;
      fill: #fff;
    }
    .con { fill: #aff }
    .ast { fill: #afa }
    .int { fill: #f7e }
    .pos { fill: #bbb }
    .ref { fill: #fea }
    text {
      stroke: none;
      fill: #000;
      font-size: 16px;
      text-anchor: middle;
      dominant-baseline: middle;
    }
    .siz { text-anchor: end }
    .ifo { text-anchor: start }
  </style>

  <rect x="60" y="10" height="20" width="100" class="con" />
  <rect x="160" y="10" height="20" width="400" />
  <text x="110" y="20">"TAG"</text>
  <text x="170" y="20" class="ifo">Header</text>
  <text x="50" y="20" class="siz">3B</text>

  <rect x="60" y="30" height="80" width="100" class="ast" />
  <rect x="160" y="30" height="80" width="400" />
  <text x="110" y="70">title</text>
  <text x="170" y="40" class="ifo">ISO/IEC 8859-1 (latin1) encoded string</text>
  <text x="50" y="70" class="siz">30B</text>

  <rect x="60" y="110" height="80" width="100" class="ast" />
  <rect x="160" y="110" height="80" width="400" />
  <text x="110" y="150">artist</text>
  <text x="170" y="120" class="ifo">latin1 string</text>
  <text x="50" y="150" class="siz">30B</text>

  <rect x="60" y="190" height="80" width="100" class="ast" />
  <rect x="160" y="190" height="80" width="400" />
  <text x="110" y="230">album</text>
  <text x="170" y="200" class="ifo">latin1 string</text>
  <text x="50" y="230" class="siz">30B</text>

  <rect x="60" y="270" height="20" width="100" class="ast" />
  <rect x="160" y="270" height="20" width="400" />
  <text x="110" y="280">year</text>
  <text x="170" y="280" class="ifo">latin1 string ('0' to '9')</text>
  <text x="50" y="280" class="siz">4B</text>

  <rect x="60" y="290" height="80" width="100" class="ast" />
  <rect x="160" y="290" height="80" width="400" />
  <text x="110" y="330">comment</text>
  <text x="170" y="300" class="ifo">latin1 string</text>
  <text x="50" y="330" class="siz">30B</text>

  <rect x="60" y="370" height="20" width="100" class="int" />
  <rect x="160" y="370" height="20" width="400" />
  <text x="110" y="380">genre</text>
  <text x="170" y="380" class="ifo">0x00 to 0x4F (winamp 0x00 to 0xBF)</text>
  <text x="50" y="380" class="siz">1B</text>

  <rect x="60" y="390" height="20" width="500" class="pos" />
  <text x="310" y="400">end of file</text>
</svg>
