<svg viewBox="0 0 570 620" xmlns="http://www.w3.org/2000/svg">
  <style>
    rect {
      stroke: #000;
      fill: #fff;
    }
    .con { fill: #aff }
    .ast { fill: #afa }
    .int { fill: #f7e }
    .pos { fill: #bbb }
    .ref { fill: #fea }
    text {
      stroke: none;
      fill: #000;
      font-size: 16px;
      text-anchor: middle;
      dominant-baseline: middle;
    }
    .siz { text-anchor: end }
    .ifo { text-anchor: start }
  </style>

  <rect x="60" y="10" height="20" width="100" class="con" />
  <rect x="160" y="10" height="20" width="400" />
  <text x="110" y="20">"TAG+"</text>
  <text x="170" y="20" class="ifo">Enhanced Header</text>

  <text x="50" y="20" class="siz">4B</text>

  <rect x="60" y="30" height="80" width="100" class="ast" />
  <rect x="160" y="30" height="80" width="400" />
  <text x="110" y="70">title</text>
  <text x="170" y="40" class="ifo">ISO/IEC 8859-1 (latin1) encoded string</text>

  <text x="50" y="70" class="siz">60B</text>

  <rect x="60" y="110" height="80" width="100" class="ast" />
  <rect x="160" y="110" height="80" width="400" />
  <text x="110" y="150">artist</text>
  <text x="170" y="120" class="ifo">latin1 string</text>

  <text x="50" y="150" class="siz">60B</text>

  <rect x="60" y="190" height="80" width="100" class="ast" />
  <rect x="160" y="190" height="80" width="400" />
  <text x="110" y="230">album</text>
  <text x="170" y="200" class="ifo">latin1 string</text>

  <text x="50" y="230" class="siz">60B</text>

  <rect x="60" y="270" height="100" width="100" class="int" />
  <rect x="160" y="270" height="100" width="400" />
  <text x="110" y="320">speed</text>
  <text x="170" y="280" class="ifo">0x00 = unset</text>
  <text x="170" y="300" class="ifo">0x01 = slow</text>
  <text x="170" y="320" class="ifo">0x02 = medium</text>
  <text x="170" y="340" class="ifo">0x03 = fast</text>
  <text x="170" y="360" class="ifo">0x04 = hardcore</text>

  <text x="50" y="320" class="siz">1B</text>

  <rect x="60" y="370" height="80" width="100" class="ast" />
  <rect x="160" y="370" height="80" width="400" />
  <text x="110" y="410">genre</text>
  <text x="170" y="380" class="ifo">latin1 string</text>

  <text x="50" y="410" class="siz">30B</text>

  <rect x="60" y="450" height="20" width="100" class="ast" />
  <rect x="160" y="450" height="20" width="400" />
  <text x="110" y="460">start time</text>
  <text x="170" y="460" class="ifo">latin1 string ("mmm:ss")</text>

  <text x="50" y="460" class="siz">6B</text>

  <rect x="60" y="470" height="20" width="100" class="ast" />
  <rect x="160" y="470" height="20" width="400" />
  <text x="110" y="480">end time</text>
  <text x="170" y="480" class="ifo">latin1 string ("mmm:ss")</text>

  <text x="50" y="480" class="siz">6B</text>

  <rect x="60" y="490" height="100" width="500" class="ref" />
  <text x="310" y="540">ID3v1.1 Tag</text>

  <text x="50" y="540" class="siz">128B</text>

  <rect x="60" y="590" height="20" width="500" class="pos" />
  <text x="310" y="600">end of file</text>
</svg>
