<?xml version="1.0" encoding="UTF-8"?>
<!DOCTYPE svg>
<svg viewBox="0 0 570 320" xmlns="http://www.w3.org/2000/svg">
  <style>
    rect {
      stroke: #000;
      fill: #fff;
    }
    .con { fill: #aff }
    .ast { fill: #afa }
    .int { fill: #f7e }
    .pos { fill: #bbb }
    .ref { fill: #fea }
    .sin { fill: #f9c }
    .flg { fill: #4f8 }
    text {
      stroke: none;
      fill: #000;
      font-size: 16px;
      text-anchor: middle;
      dominant-baseline: middle;
    }
    .siz { text-anchor: end }
    .ifo { text-anchor: start }
  </style>

  <rect x="60" y="10" height="20" width="100" class="con" />
  <rect x="160" y="10" height="20" width="400" />
  <text x="110" y="20">"ID3"</text>
  <text x="170" y="20" class="ifo">Header</text>

  <text x="50" y="20" class="siz">3B</text>

  <rect x="60" y="30" height="20" width="100" class="int" />
  <rect x="160" y="30" height="20" width="400" />
  <text x="110" y="40">major version</text>

  <text x="50" y="40" class="siz">1B</text>

  <rect x="60" y="50" height="20" width="100" class="int" />
  <rect x="160" y="50" height="20" width="400" />
  <text x="110" y="60">revision</text>

  <text x="50" y="60" class="siz">1B</text>

  <rect x="60" y="70" height="180" width="20" class="flg" />
  <g transform="translate(70, 160)">
    <text x="0" y="0" transform="rotate(270)">flags</text>
  </g>

  <rect x="80" y="70" height="20" width="80" class="flg" />
  <rect x="160" y="70" height="20" width="400" />
  <text x="120" y="80">7 MSB</text>
  <text x="170" y="80" class="ifo">Unsynchronisation</text>

  <rect x="80" y="90" height="40" width="80" class="flg" />
  <rect x="160" y="90" height="40" width="400" />
  <text x="120" y="110">6</text>
  <text x="170" y="100" class="ifo">Compression (ID3v2.2)</text>
  <text x="170" y="120" class="ifo">Extended header (ID3v2.3 or later)</text>

  <rect x="80" y="130" height="20" width="80" class="flg" />
  <rect x="160" y="130" height="20" width="400" />
  <text x="120" y="140">5</text>
  <text x="170" y="140" class="ifo">Experimental indicator (ID3v2.3 or later)</text>

  <rect x="80" y="150" height="20" width="80" class="flg" />
  <rect x="160" y="150" height="20" width="400" />
  <text x="120" y="160">4</text>
  <text x="170" y="160" class="ifo">Footer present (ID3v2.4)</text>

  <rect x="80" y="170" height="20" width="80" class="flg" />
  <rect x="160" y="170" height="20" width="400" />
  <text x="120" y="180">3</text>
  <text x="170" y="180" class="ifo"></text>

  <rect x="80" y="190" height="20" width="80" class="flg" />
  <rect x="160" y="190" height="20" width="400" />
  <text x="120" y="200">2</text>
  <text x="170" y="200" class="ifo"></text>

  <rect x="80" y="210" height="20" width="80" class="flg" />
  <rect x="160" y="210" height="20" width="400" />
  <text x="120" y="220">1</text>
  <text x="170" y="220" class="ifo"></text>

  <rect x="80" y="230" height="20" width="80" class="flg" />
  <rect x="160" y="230" height="20" width="400" />
  <text x="120" y="240">0 LSB</text>
  <text x="170" y="240" class="ifo"></text>

  <text x="50" y="160" class="siz">1B</text>

  <rect x="60" y="250" height="40" width="100" class="sin" />
  <rect x="160" y="250" height="40" width="400" />
  <text x="110" y="270">size</text>
  <text x="170" y="260" class="ifo">syncsafe integer</text>
  <text x="170" y="280" class="ifo">exclude header 10 bytes (size + 10 = ID3v2 total size)</text>

  <text x="50" y="270" class="siz">4B</text>
</svg>
