<?xml version="1.0" encoding="UTF-8"?>
<!DOCTYPE svg>
<svg viewBox="0 0 570 500" xmlns="http://www.w3.org/2000/svg">
  <style>
    rect {
      stroke: #000;
      fill: #fff;
    }
    .con { fill: #aff }
    .ast { fill: #afa }
    .int { fill: #f7e }
    .pos { fill: #bbb }
    .ref { fill: #fea }
    .sin { fill: #f9c }
    .bin { fill: #fa0 }
    .flg { fill: #4f8 }
    text {
      stroke: none;
      fill: #000;
      font-size: 16px;
      text-anchor: middle;
      dominant-baseline: middle;
    }
    .siz { text-anchor: end }
    .ifo { text-anchor: start }
  </style>

  <rect x="60" y="10" height="40" width="100" class="con" />
  <rect x="160" y="10" height="40" width="400" />
  <text x="110" y="30">size</text>
  <text x="170" y="20" class="ifo">extended header size</text>

  <text x="50" y="30" class="siz">4B</text>

  <rect x="60" y="50" height="20" width="100" class="int" />
  <rect x="160" y="50" height="20" width="400" />
  <text x="110" y="60">flags size</text>
  <text x="170" y="60" class="ifo">0x01</text>

  <text x="50" y="60" class="siz">1B</text>

  <rect x="60" y="70" height="160" width="20" class="flg" />
  <g transform="translate(70, 150)">
    <text x="0" y="0" transform="rotate(270)">flags</text>
  </g>

  <rect x="80" y="70" height="20" width="80" class="flg" />
  <rect x="160" y="70" height="20" width="400" />
  <text x="120" y="80">7 MSB</text>
  <text x="170" y="80" class="ifo"></text>

  <rect x="80" y="90" height="20" width="80" class="flg" />
  <rect x="160" y="90" height="20" width="400" />
  <text x="120" y="100">6</text>
  <text x="170" y="100" class="ifo">Tag is an update</text>

  <rect x="80" y="110" height="20" width="80" class="flg" />
  <rect x="160" y="110" height="20" width="400" />
  <text x="120" y="120">5</text>
  <text x="170" y="120" class="ifo">CRC data present</text>

  <rect x="80" y="130" height="20" width="80" class="flg" />
  <rect x="160" y="130" height="20" width="400" />
  <text x="120" y="140">4</text>
  <text x="170" y="140" class="ifo">Tag restrictions</text>

  <rect x="80" y="150" height="20" width="80" class="flg" />
  <rect x="160" y="150" height="20" width="400" />
  <text x="120" y="160">3</text>
  <text x="170" y="160" class="ifo"></text>

  <rect x="80" y="170" height="20" width="80" class="flg" />
  <rect x="160" y="170" height="20" width="400" />
  <text x="120" y="180">2</text>
  <text x="170" y="180" class="ifo"></text>

  <rect x="80" y="190" height="20" width="80" class="flg" />
  <rect x="160" y="190" height="20" width="400" />
  <text x="120" y="200">1</text>
  <text x="170" y="200" class="ifo"></text>

  <rect x="80" y="210" height="20" width="80" class="flg" />
  <rect x="160" y="210" height="20" width="400" />
  <text x="120" y="220">0 LSB</text>
  <text x="170" y="220" class="ifo"></text>

  <text x="50" y="150" class="siz">1B</text>

  <rect x="60" y="230" height="20" width="100" class="con" />
  <rect x="160" y="230" height="20" width="400" />
  <text x="110" y="240">0x00</text>
  <text x="170" y="240" class="ifo">data size (when "Tag is an update" is set)</text>

  <text x="50" y="240" class="siz">1B</text>

  <rect x="60" y="250" height="20" width="100" class="con" />
  <rect x="160" y="250" height="20" width="400" />
  <text x="110" y="260">0x05</text>
  <text x="170" y="260" class="ifo">data size (when "CRC data present" is set)</text>

  <text x="50" y="260" class="siz">1B</text>

  <rect x="60" y="270" height="40" width="100" class="bin" />
  <rect x="160" y="270" height="40" width="400" />
  <text x="110" y="290">CRC</text>
  <text x="170" y="280" class="ifo">binary data (when "CRC data present" is set)</text>

  <text x="50" y="290" class="siz">5B</text>

  <rect x="60" y="310" height="20" width="100" class="con" />
  <rect x="160" y="310" height="20" width="400" />
  <text x="110" y="320">0x01</text>
  <text x="170" y="320" class="ifo">data size (when "Tag restrictions" is set)</text>

  <text x="50" y="320" class="siz">1B</text>

  <rect x="60" y="330" height="160" width="20" class="flg" />
  <g transform="translate(70, 410)">
    <text x="0" y="0" transform="rotate(270)">Tag restrictions</text>
  </g>

  <rect x="80" y="330" height="20" width="80" class="flg" />
  <rect x="160" y="330" height="40" width="400" />
  <text x="120" y="340">7 MSB</text>
  <text x="170" y="340" class="ifo">Tag size restrictions</text>

  <rect x="80" y="350" height="20" width="80" class="flg" />
  <text x="120" y="360">6</text>

  <rect x="80" y="370" height="20" width="80" class="flg" />
  <rect x="160" y="370" height="20" width="400" />
  <text x="120" y="380">5</text>
  <text x="170" y="380" class="ifo">Text encoding restrictions</text>

  <rect x="80" y="390" height="20" width="80" class="flg" />
  <rect x="160" y="390" height="40" width="400" />
  <text x="120" y="400">4</text>
  <text x="170" y="400" class="ifo">Text fields size restrictions</text>

  <rect x="80" y="410" height="20" width="80" class="flg" />
  <text x="120" y="420">3</text>

  <rect x="80" y="430" height="20" width="80" class="flg" />
  <rect x="160" y="430" height="20" width="400" />
  <text x="120" y="440">2</text>
  <text x="170" y="440" class="ifo">Image encoding restrictions</text>

  <rect x="80" y="450" height="20" width="80" class="flg" />
  <rect x="160" y="450" height="40" width="400" />
  <text x="120" y="460">1</text>
  <text x="170" y="460" class="ifo">Image size restrictions</text>

  <rect x="80" y="470" height="20" width="80" class="flg" />
  <text x="120" y="480">0 LSB</text>

  <text x="50" y="410" class="siz">1B</text>
</svg>
