<?xml version="1.0" encoding="UTF-8"?>
<!DOCTYPE svg>
<svg viewBox="0 0 570 420" xmlns="http://www.w3.org/2000/svg">
  <style>
    rect {
      stroke: black;
      fill: white;
    }
    .con { fill: lightblue }
    .ast { fill: yellowgreen }
    .int { fill: orchid }
    .sin { fill: mediumorchid }
    .bin { fill: sandybrown }
    .flg { fill: khaki }
    .pos { fill: gray }
    text {
      stroke: none;
      fill: black;
      font-size: 16px;
      text-anchor: middle;
      dominant-baseline: middle;
    }
    .ofs { text-anchor: end }
    .ifo { text-anchor: start }
  </style>

  <text x="50" y="10" class="ofs">0</text>

  <rect x="60" y="10" height="40" width="100" class="con" />
  <rect x="160" y="10" height="40" width="400" />
  <text x="110" y="30">size</text>
  <text x="170" y="20" class="ifo">extended header size</text>
  <text x="170" y="40" class="ifo">exclude size 4 bytes</text>

  <text x="50" y="50" class="ofs">4</text>

  <rect x="60" y="90" height="20" width="100" class="flg" />
  <rect x="160" y="90" height="20" width="400" />
  <text x="110" y="100">7 MSB</text>
  <text x="170" y="100" class="ifo">Unsynchronisation</text>

  <rect x="60" y="110" height="40" width="100" class="flg" />
  <rect x="160" y="110" height="40" width="400" />
  <text x="110" y="130">6</text>
  <text x="170" y="120" class="ifo">Compression (ID3v2.2)</text>
  <text x="170" y="140" class="ifo">Extended header (ID3v2.3 or later)</text>

  <rect x="60" y="150" height="20" width="100" class="flg" />
  <rect x="160" y="150" height="20" width="400" />
  <text x="110" y="160">5</text>
  <text x="170" y="160" class="ifo">Experimental indicator (ID3v2.3 or later)</text>

  <rect x="60" y="170" height="20" width="100" class="flg" />
  <rect x="160" y="170" height="20" width="400" />
  <text x="110" y="180">4</text>
  <text x="170" y="180" class="ifo">Footer present (ID3v2.4)</text>

  <rect x="60" y="190" height="20" width="100" class="flg" />
  <rect x="160" y="190" height="20" width="400" />
  <text x="110" y="200">3</text>
  <text x="170" y="200" class="ifo"></text>

  <rect x="60" y="210" height="20" width="100" class="flg" />
  <rect x="160" y="210" height="20" width="400" />
  <text x="110" y="220">2</text>
  <text x="170" y="220" class="ifo"></text>

  <rect x="60" y="230" height="20" width="100" class="flg" />
  <rect x="160" y="230" height="20" width="400" />
  <text x="110" y="240">1</text>
  <text x="170" y="240" class="ifo"></text>

  <rect x="60" y="250" height="20" width="100" class="flg" />
  <rect x="160" y="250" height="20" width="400" />
  <text x="110" y="260">0 LSB</text>
  <text x="170" y="260" class="ifo"></text>

  <text x="50" y="370" class="ofs">6</text>

  <rect x="60" y="370" height="20" width="100" class="int" />
  <rect x="160" y="370" height="20" width="400" />
  <text x="110" y="380">padding size</text>
  <text x="170" y="380" class="ifo">integer</text>

  <text x="50" y="390" class="ofs">10</text>

  <rect x="60" y="390" height="20" width="100" class="bin" />
  <rect x="160" y="390" height="20" width="400" />
  <text x="110" y="400">CRC</text>
  <text x="170" y="400" class="ifo">binary data</text>

  <text x="50" y="410" class="ofs">14</text>
</svg>
